<svg version="1.1" id="Layer_1" xmlns="http://www.w3.org/2000/svg" xmlns:xlink="http://www.w3.org/1999/xlink" x="0px" y="0px"
	 width="100%" viewBox="0 0 1024 976" enable-background="new 0 0 1024 976" xml:space="preserve">
<path fill="#000000" opacity="1.000000" stroke="none" 
	d="
M836.994019,791.995605 
	C769.222473,858.503479 688.610229,899.290222 595.752258,916.467224 
	C559.668335,923.142151 523.235352,925.310913 486.793335,922.964844 
	C363.714142,915.041077 258.739746,867.317871 174.445435,776.699707 
	C119.110100,717.213013 84.035210,647.050354 68.936394,567.065308 
	C62.817024,534.648315 61.255989,501.886108 62.991718,469.073212 
	C65.013283,430.856598 72.458374,393.550323 85.066406,357.332092 
	C86.227013,353.998138 87.872688,352.626099 91.517151,352.630035 
	C170.682526,352.715851 249.848053,352.719696 329.013367,352.610291 
	C332.892761,352.604919 334.130737,354.567352 335.295746,357.607880 
	C348.939972,393.217316 362.651123,428.801147 376.359558,464.385986 
	C399.523529,524.515869 422.701355,584.640503 445.865997,644.770142 
	C451.185211,658.577515 456.474670,672.396484 462.558716,686.133911 
	C462.558716,673.808716 462.924103,661.470398 462.482361,649.161072 
	C461.573486,623.835449 462.003632,598.505066 461.685730,573.179016 
	C460.838623,505.688721 460.638000,438.195374 460.584473,370.700897 
	C460.581177,366.541718 460.330292,362.376038 460.026642,358.225708 
	C459.736298,354.257263 461.112274,352.596039 465.390900,352.619934 
	C492.222992,352.770020 519.056641,352.755188 545.888916,352.621094 
	C549.449768,352.603302 551.233154,353.778931 552.494751,357.113159 
	C559.919800,376.736359 567.552429,396.280914 575.097839,415.858582 
	C595.756470,469.460266 616.410767,523.063599 637.058411,576.669495 
	C650.823364,612.406311 664.573486,648.148743 678.335571,683.886597 
	C678.615784,684.614197 678.621887,685.532654 679.865540,685.967896 
	C679.865540,683.719849 679.865845,681.594482 679.865479,679.469116 
	C679.846130,573.304199 679.826416,467.139313 679.807861,360.974396 
	C679.806458,352.696533 679.810425,352.693939 687.888428,352.694275 
	C717.888000,352.695435 747.888123,352.796204 777.886475,352.602783 
	C782.787720,352.571198 784.640686,353.752380 784.466980,358.985535 
	C784.085754,370.472565 784.371582,381.981232 784.352539,393.481018 
	C784.341370,400.193237 784.313110,400.229401 777.755737,400.234131 
	C750.756165,400.253601 723.756531,400.235870 696.756958,400.260864 
	C687.491272,400.269470 688.302063,399.501801 688.300537,408.501495 
	C688.284363,503.500061 688.287415,598.498657 688.284607,693.497192 
	C688.284363,701.316406 688.282776,701.322266 680.321533,701.323914 
	C654.821899,701.329224 629.321411,701.225586 603.823425,701.430359 
	C599.344910,701.466248 597.111267,700.265259 595.424927,695.853943 
	C568.905640,626.481689 542.192017,557.183838 515.498535,487.878265 
	C500.953674,450.114777 486.366821,412.367462 471.782318,374.619232 
	C471.016479,372.636993 470.095276,370.714752 468.590179,368.885681 
	C468.590179,380.947754 468.338562,393.016022 468.637421,405.070709 
	C469.529663,441.063202 468.841034,477.066162 469.438782,513.054932 
	C470.294006,564.547363 470.137695,616.041565 470.421173,667.534973 
	C470.473450,677.028687 470.646454,686.526062 471.016785,696.011841 
	C471.181335,700.226318 469.492310,701.424927 465.448914,701.404785 
	C438.616638,701.270874 411.783051,701.265198 384.950867,701.406067 
	C381.301636,701.425232 379.687897,700.032898 378.439087,696.774109 
	C360.263947,649.344360 341.981750,601.955750 323.714264,554.561462 
	C299.457458,491.628113 275.165039,428.708466 250.997879,365.740753 
	C249.634460,362.188354 247.694244,360.951294 243.979721,360.958221 
	C205.147202,361.030975 166.314224,361.019653 127.482018,360.866577 
	C123.275177,360.849976 121.326683,362.361725 119.961411,366.317078 
	C109.816086,395.709137 102.906334,425.774353 100.185173,456.786835 
	C90.748909,564.330383 121.477409,659.467102 190.698227,741.632568 
	C254.458572,817.316284 336.362427,862.928406 433.343597,881.847412 
	C467.881714,888.585205 502.797180,890.644531 537.763184,888.469788 
	C633.433411,882.519470 718.443420,849.154663 791.156921,786.297729 
	C856.997314,729.382324 899.963501,658.378052 919.079285,573.281372 
	C925.968140,542.614319 928.863403,511.447357 927.521912,480.076538 
	C923.478638,385.527557 889.336060,303.091949 825.660461,233.230316 
	C763.315979,164.829086 685.849365,122.894394 595.382690,104.606781 
	C559.761108,97.405952 523.659424,95.267212 487.494415,97.526878 
	C409.001007,102.431282 336.869263,126.654274 271.690704,170.991013 
	C269.644348,172.383026 267.542480,173.693390 265.652893,174.920746 
	C263.342010,174.188080 263.207031,172.342117 262.627228,170.859650 
	C259.594238,163.104736 256.881256,155.210342 253.506226,147.608994 
	C251.572632,143.254120 252.856766,141.204391 256.541077,138.789841 
	C305.157043,106.928955 357.887329,85.025208 414.659363,72.643761 
	C455.776581,63.676491 497.421753,60.653069 539.285034,63.012833 
	C617.546936,67.424332 690.729309,89.444733 757.194092,131.254150 
	C855.899109,193.344223 922.066101,280.021332 951.545105,393.620148 
	C962.091248,434.260376 965.628479,475.710693 962.997070,517.429932 
	C957.123169,610.556030 923.217896,692.620483 863.115906,763.944519 
	C854.941467,773.645203 846.223022,782.809021 836.994019,791.995605 
z"/>
</svg>